<svg xmlns="http://www.w3.org/2000/svg" xmlns:xlink="http://www.w3.org/1999/xlink" width="2814" height="1444" viewBox="0 0 2814 1444">
  <metadata><?xpacket begin="﻿" id="W5M0MpCehiHzreSzNTczkc9d"?>
<x:xmpmeta xmlns:x="adobe:ns:meta/" x:xmptk="Adobe XMP Core 5.6-c142 79.160924, 2017/07/13-01:06:39        ">
   <rdf:RDF xmlns:rdf="http://www.w3.org/1999/02/22-rdf-syntax-ns#">
      <rdf:Description rdf:about=""/>
   </rdf:RDF>
</x:xmpmeta>
                                                                                                    
                                                                                                    
                                                                                                    
                                                                                                    
                                                                                                    
                                                                                                    
                                                                                                    
                                                                                                    
                                                                                                    
                                                                                                    
                                                                                                    
                                                                                                    
                                                                                                    
                                                                                                    
                                                                                                    
                                                                                                    
                                                                                                    
                                                                                                    
                                                                                                    
                                                                                                    
                           
<?xpacket end="w"?></metadata>
<defs>
    <style>
      .cls-1 {
        filter: url(#filter);
      }

      .cls-2 {
        fill: #e9030f;
        fill-rule: evenodd;
      }
    </style>
    <filter id="filter" filterUnits="userSpaceOnUse">
      <feFlood result="flood"/>
      <feComposite result="composite" operator="in" in2="SourceGraphic"/>
      <feBlend result="blend" in2="SourceGraphic"/>
    </filter>
  </defs>
  <g class="cls-1">
    <path id="χPy_copy" data-name="χPy copy" class="cls-2" d="M904.634,417.538q-73.9,97.011-129.324,167.844T679.857,705.49q-12.341-40.023-25.4-80.072-13.1-40.024-25.4-80.072-26.2-83.153-55.425-98.55-47.739-27.719-177.051-15.4L367.323,580.763q73.9-9.24,106.231,9.239,10.754,7.722,27.712,50.815,16.923,47.746,33.1,95.47,16.166,47.748,33.1,95.471Q445.83,979.584,358.086,1081.98T216.445,1244.44q64.662,36.96,132.4,69.29,92.374-112.425,160.116-194.02,67.729-81.63,110.849-130.887,21.543,93.911,33.1,145.517,11.547,51.57,14.626,59.28,23.094,73.92,69.281,97.01c74.259,37.99,444.489-141.81,485.969-170.7-160.26,33.59-271.174,58.04-338.17,65.99q-21.577,0-46.187-12.32-23.094-12.33-55.425-118.56-12.341-49.275-26.173-97.014-13.856-47.712-27.712-95.471Q841.488,720.9,920.8,623.108q79.276-97.768,127.01-151.675ZM1962.32,336.7q1.515-19.236,1.54-36.186,0-232.494-261.73-232.518H1269.51q1.515,56.986-27.71,201.721-30.825,146.31-60.04,286.412-15.42,70.845-30.03,141.666-14.64,70.845-30.02,141.666-15.4,69.294-30.02,116.259-14.655,46.989-26.94,76.224h230.93q-3.105-58.5,9.24-126.269,1.515-7.687,6.93-36.187,5.37-28.475,16.16-77.762,19.995-98.526,93.92-101.63,44.64,0,81.6-.77t64.66-2.31q138.555-6.135,207.84-41.576,149.31-70.809,181.67-269.474Q1960.775,355.968,1962.32,336.7ZM1643.63,516.089q-32.34,15.409-104.69,15.4H1388.06l66.2-309.51h150.88q61.56,0,80.06,6.16,69.27,21.582,69.28,98.55a244.12,244.12,0,0,1-4.62,44.656Q1729.835,480.7,1643.63,516.089h0Zm888.31-80.072q-3.105,0-96.99,167.843-56.985,101.631-101.61,178.623-44.67,77.016-80.06,132.427-35.43-177.058-60.81-296.421-25.41-119.315-40.8-185.552l-167.82,1.54q38.475,166.3,76.21,329.528,37.71,163.236,76.21,327.985a474.642,474.642,0,0,1-27.71,45.43,394.446,394.446,0,0,1-35.41,43.88q-49.29,50.82-78.52,49.28-70.83-4.62-129.32-58.52l-106.23,144.75q29.265,4.62,96.99,36.96,53.91,26.16,120.09,21.56,92.37-7.725,187.82-98.56,72.36-69.285,155.5-197.1,30.78-47.745,60.04-93.927,29.235-46.2,58.51-93.931,83.13-135.483,150.11-249.455,66.96-113.937,120.85-206.34-1.545-1.517-177.05,0h0Z"/>
    <path id="Shape_1_copy" data-name="Shape 1 copy" class="cls-2" d="M178.8,537.677s16.293,62.146,138,69.052S433.319,524.45,427.946,492.05Zm0.237,1.3s-6.779-63.888,104.587-113.479,138.105,35.65,144.559,67.852Z"/>
    <path class="cls-2" d="M209.756,529.376s-50.6.191-54.493,22.7-12.388,35.694-24.814,33.468-26.457-4.871-26.457-4.871l14.714,11.317-1,15.432,10.5-11.179s27.6-2.372,31.924-31.959,19.705-21.9,46.145-28.94C207.718,534.96,291.844,589.336,293,589c9.234-2.685,173.427-60.461,163-95-8.792-29.125-190.743-35.514-201-41C250.905,450.81,209.756,529.376,209.756,529.376Z"/>
  </g>
</svg>
